<?xml version="1.0" encoding="UTF-8"?>
<svg xmlns="http://www.w3.org/2000/svg" width="1200" height="630" viewBox="0 0 1200 630" fill="none">
  <defs>
    <filter id="blur" x="-50%" y="-50%" width="200%" height="200%">
      <feGaussianBlur stdDeviation="48" />
    </filter>
    <linearGradient id="footerFade" x1="0" y1="0" x2="0" y2="1">
      <stop offset="0%" stop-color="#f5f0ea" stop-opacity="0" />
      <stop offset="100%" stop-color="#f5f0ea" stop-opacity="0.55" />
    </linearGradient>
  </defs>

  <rect width="1200" height="630" fill="#fdfaf6" />
  <rect width="1200" height="630" fill="url(#footerFade)" />

  <ellipse cx="1060" cy="120" rx="220" ry="180" fill="#C06C84" opacity="0.10" filter="url(#blur)" />
  <ellipse cx="980" cy="500" rx="260" ry="200" fill="#dc2626" opacity="0.10" filter="url(#blur)" />
  <ellipse cx="140" cy="560" rx="240" ry="190" fill="#355C7D" opacity="0.07" filter="url(#blur)" />

  <g transform="translate(96 72) scale(1.85)">
    <rect x="38" y="42" width="44" height="30" rx="8" fill="#F67280" stroke="#d4505f" stroke-width="3" />
    <rect x="31" y="35" width="44" height="30" rx="8" fill="#C06C84" stroke="#9d5069" stroke-width="3" />
    <rect x="24" y="28" width="44" height="30" rx="8" fill="#355C7D" stroke="#264761" stroke-width="3" />
  </g>

  <text x="1104" y="108" text-anchor="end" fill="#64748b" font-family="sans-serif" font-size="16" font-weight="600" letter-spacing="1.4">JUN 2026</text>

  <text x="96" y="251.20000000000002" fill="#C06C84" font-family="sans-serif" font-size="22" font-weight="600" letter-spacing="3.1">PRESENTATIONS.MELMAYAN.FR</text>

  <text x="96" y="341.20000000000005" fill="#0f172a" font-family="sans-serif" font-size="84" font-weight="800" letter-spacing="-2.6">Clickjacking</text>

  <text x="96" y="393.28000000000003" fill="#dc2626" font-family="sans-serif" font-size="32" font-weight="500" font-style="italic" letter-spacing="-0.5">Proof Hackers Write Better CSS Than You</text>

  <rect x="96" y="421.28000000000003" width="48" height="4" rx="2" fill="#dc2626" />

  <text x="96" y="465.28000000000003" fill="#64748b" font-family="sans-serif" font-size="26" font-weight="400">
    <tspan x="96" dy="0">When z-index, opacity, and iframe become weapons. The attack, modern</tspan>
    <tspan x="96" dy="30">defenses (XFO, CSP frame-ancestors), and advanced variants like</tspan>
    <tspan x="96" dy="30">double-clickjacking.</tspan>
  </text>

  
  <rect x="96" y="583.28" width="100" height="28" rx="8" fill="#dc262612" stroke="#dc26262e" stroke-width="1" />
  <text x="146" y="602.28" text-anchor="middle" fill="#334155" font-family="sans-serif" font-size="13" font-weight="600" letter-spacing="0.5">SECURITY</text>

  <rect x="206" y="583.28" width="72" height="28" rx="8" fill="#dc262612" stroke="#dc26262e" stroke-width="1" />
  <text x="242" y="602.28" text-anchor="middle" fill="#334155" font-family="sans-serif" font-size="13" font-weight="600" letter-spacing="0.5">WEB</text>
</svg>
